<?xml version="1.0" encoding="UTF-8" standalone="no"?>
<svg
   xmlns:dc="http://purl.org/dc/elements/1.1/"
   xmlns:cc="http://creativecommons.org/ns#"
   xmlns:rdf="http://www.w3.org/1999/02/22-rdf-syntax-ns#"
   xmlns:svg="http://www.w3.org/2000/svg"
   xmlns="http://www.w3.org/2000/svg"
   xmlns:sodipodi="http://sodipodi.sourceforge.net/DTD/sodipodi-0.dtd"
   xmlns:inkscape="http://www.inkscape.org/namespaces/inkscape"
   version="1.0"
   width="464.000000pt"
   height="463.000000pt"
   viewBox="0 0 464.000000 463.000000"
   preserveAspectRatio="xMidYMid meet"
   id="svg4529"
   sodipodi:docname="Alliances.svg"
   inkscape:version="0.92.1 r15371">
  <defs
     id="defs4533" />
  <sodipodi:namedview
     pagecolor="#ffffff"
     bordercolor="#666666"
     borderopacity="1"
     objecttolerance="10"
     gridtolerance="10"
     guidetolerance="10"
     inkscape:pageopacity="0"
     inkscape:pageshadow="2"
     inkscape:window-width="1920"
     inkscape:window-height="1027"
     id="namedview4531"
     showgrid="false"
     inkscape:zoom="1.3930886"
     inkscape:cx="309.33333"
     inkscape:cy="305.40205"
     inkscape:window-x="-8"
     inkscape:window-y="828"
     inkscape:window-maximized="1"
     inkscape:current-layer="g4527" />
  <metadata
     id="metadata4485">
Created by potrace 1.15, written by Peter Selinger 2001-2017
<rdf:RDF>
  <cc:Work
     rdf:about="">
    <dc:format>image/svg+xml</dc:format>
    <dc:type
       rdf:resource="http://purl.org/dc/dcmitype/StillImage" />
    <dc:title></dc:title>
  </cc:Work>
</rdf:RDF>
</metadata>
  <g
     transform="translate(0.000000,463.000000) scale(0.100000,-0.100000)"
     fill="#000000"
     stroke="none"
     id="g4527">
    <path
       d="M10 2315 l0 -2315 2315 0 2315 0 0 2315 0 2315 -2315 0 -2315 0 0 -2315z m4570 0 l0 -2255 -2255 0 -2255 0 0 2255 0 2255 2255 0 2255 0 0 -2255z"
       id="path4487" />
    <path
       d="M4140 4461 c-71 -23 -122 -66 -156 -131 -27 -51 -25 -162 3 -215 63 -118 201 -166 318 -111 231 109 169 445 -84 462 -31 2 -67 0 -81 -5z m150 -42 c24 -11 53 -28 64 -37 30 -26 66 -113 66 -157 0 -42 -29 -116 -58 -149 -26 -29 -113 -66 -157 -66 -44 0 -131 37 -157 66 -10 11 -27 42 -39 68 -44 100 -1 215 100 268 64 34 118 36 181 7z"
       id="path4489" />
    <path
       d="M250 4135 l0 -325 1370 0 1370 0 0 325 0 325 -1370 0 -1370 0 0 -325z m2710 0 l0 -295 -1340 0 -1340 0 0 295 0 295 1340 0 1340 0 0 -295z"
       id="path4491" />
    <path
       d="M1260 2980 l0 -270 270 0 270 0 0 270 0 270 -270 0 -270 0 0 -270z m460 0 l0 -190 -190 0 -190 0 0 190 0 190 190 0 190 0 0 -190z"
       id="path4495" />
    <path
       d="M3115 3203 c-70 -16 -117 -38 -140 -64 l-25 -31 0 -243 0 -243 31 -31 c59 -60 75 -61 684 -61 609 0 625 1 684 61 l31 31 0 243 0 243 -25 30 c-14 17 -47 38 -73 48 -43 17 -92 19 -597 20 -302 1 -559 0 -570 -3z m1114 -34 c28 -6 65 -20 83 -33 l33 -22 3 -239 c2 -232 2 -239 -19 -261 -49 -52 -68 -54 -664 -54 -596 0 -615 2 -664 54 -21 22 -21 29 -19 261 l3 238 27 20 c57 43 96 46 645 46 337 1 540 -3 572 -10z"
       id="path4497" />
    <path
       d="M3115 2403 c-70 -16 -117 -38 -140 -64 l-25 -31 0 -258 0 -258 31 -31 c59 -60 75 -61 684 -61 609 0 625 1 684 61 l31 31 0 258 0 258 -25 30 c-14 17 -47 38 -73 48 -43 17 -92 19 -597 20 -302 1 -559 0 -570 -3z m1114 -34 c28 -6 65 -20 83 -33 l33 -22 3 -254 c2 -247 2 -254 -19 -276 -49 -52 -68 -54 -664 -54 -596 0 -615 2 -664 54 -21 22 -21 29 -19 276 l3 253 27 20 c57 43 96 46 645 46 337 1 540 -3 572 -10z"
       id="path4499" />
    <path
       d="M590 1560 l0 -270 270 0 270 0 0 270 0 270 -270 0 -270 0 0 -270z m450 0 l0 -190 -190 0 -190 0 0 190 0 190 190 0 190 0 0 -190z"
       id="path4505" />
    <path
       d="M760 1725 c0 -8 -7 -15 -15 -15 -8 0 -15 -7 -15 -15 0 -8 -7 -15 -15 -15 -8 0 -15 -7 -15 -15 0 -8 -7 -15 -15 -15 -12 0 -15 -17 -15 -90 0 -73 3 -90 15 -90 8 0 15 -7 15 -15 0 -8 7 -15 15 -15 8 0 15 -7 15 -15 0 -8 7 -15 15 -15 8 0 15 -7 15 -15 0 -12 17 -15 90 -15 73 0 90 3 90 15 0 8 7 15 15 15 8 0 15 7 15 15 0 8 7 15 15 15 8 0 15 7 15 15 0 8 7 15 15 15 12 0 15 17 15 90 0 73 -3 90 -15 90 -8 0 -15 7 -15 15 0 8 -7 15 -15 15 -8 0 -15 7 -15 15 0 8 -7 15 -15 15 -8 0 -15 7 -15 15 0 12 -17 15 -90 15 -73 0 -90 -3 -90 -15z m150 -60 c0 -8 -7 -15 -15 -15 -8 0 -15 -7 -15 -15 0 -8 -7 -15 -15 -15 -8 0 -15 -7 -15 -15 0 -8 -7 -15 -15 -15 -8 0 -15 -7 -15 -15 0 -8 -7 -15 -15 -15 -8 0 -15 -7 -15 -15 0 -8 -7 -15 -15 -15 -8 0 -15 -7 -15 -15 0 -8 -7 -15 -15 -15 -12 0 -15 15 -15 75 0 60 3 75 15 75 8 0 15 7 15 15 0 12 15 15 75 15 60 0 75 -3 75 -15z m60 -120 c0 -60 -3 -75 -15 -75 -8 0 -15 -7 -15 -15 0 -12 -15 -15 -75 -15 -60 0 -75 3 -75 15 0 8 7 15 15 15 8 0 15 7 15 15 0 8 7 15 15 15 8 0 15 7 15 15 0 8 7 15 15 15 8 0 15 7 15 15 0 8 7 15 15 15 8 0 15 7 15 15 0 8 7 15 15 15 8 0 15 7 15 15 0 8 7 15 15 15 12 0 15 -15 15 -75z"
       id="path4507" />
    <path
       d="M1930 1560 l0 -270 270 0 270 0 0 270 0 270 -270 0 -270 0 0 -270z m450 0 l0 -190 -190 0 -190 0 0 190 0 190 190 0 190 0 0 -190z"
       id="path4509" />
    <path
       d="M2160 1665 l0 -75 -75 0 -75 0 0 -30 0 -30 75 0 75 0 0 -75 0 -75 30 0 30 0 0 75 0 75 75 0 75 0 0 30 0 30 -75 0 -75 0 0 75 0 75 -30 0 -30 0 0 -75z"
       id="path4511" />
    <path
       d="M3115 1573 c-70 -16 -117 -38 -140 -64 l-25 -31 0 -243 0 -243 31 -31 c59 -60 75 -61 684 -61 609 0 625 1 684 61 l31 31 0 243 0 243 -25 30 c-14 17 -47 38 -73 48 -43 17 -92 19 -597 20 -302 1 -559 0 -570 -3z m1114 -34 c28 -6 65 -20 83 -33 l33 -22 3 -239 c2 -232 2 -239 -19 -261 -49 -52 -68 -54 -664 -54 -596 0 -615 2 -664 54 -21 22 -21 29 -19 261 l3 238 27 20 c57 43 96 46 645 46 337 1 540 -3 572 -10z"
       id="path4513" />
    <path
       d="M3313 677 c-106 -78 -192 -146 -192 -152 0 -12 383 -295 399 -295 18 0 11 16 -67 152 -42 73 -76 138 -76 143 0 6 34 70 76 143 43 74 77 138 77 143 0 22 -36 -1 -217 -134z m138 45 c-5 -9 -32 -57 -60 -105 -28 -49 -51 -90 -51 -92 0 -2 23 -43 51 -92 80 -138 77 -130 45 -110 -43 29 -262 191 -266 199 -4 6 275 218 287 218 2 0 -1 -8 -6 -18z"
       id="path4517" />
    <path
       d="M3800 811 c0 -5 34 -69 77 -143 42 -73 76 -137 76 -143 0 -5 -34 -70 -76 -143 -78 -136 -85 -152 -67 -152 16 0 399 283 399 295 0 12 -383 295 -399 295 -5 0 -10 -4 -10 -9z m238 -189 c65 -48 118 -91 118 -97 0 -9 -186 -152 -262 -202 -32 -20 -35 -28 45 110 28 49 51 90 51 92 0 2 -23 43 -51 92 -80 138 -77 130 -45 110 15 -10 80 -57 144 -105z"
       id="path4519" />
    <path
       d="M1048 469 c-43 -22 -78 -81 -78 -131 1 -74 74 -148 148 -148 152 0 207 202 76 277 -48 28 -97 28 -146 2z m154 -46 c57 -58 43 -154 -29 -188 -48 -23 -99 -14 -138 25 -56 56 -35 158 40 191 36 16 96 3 127 -28z"
       id="path4521" />
    <path
       d="M1458 469 c-43 -22 -78 -81 -78 -131 1 -75 74 -148 150 -148 76 0 149 73 150 148 0 51 -35 109 -80 132 -49 25 -94 25 -142 -1z m156 -48 c26 -27 31 -39 31 -81 0 -43 -5 -54 -33 -82 -47 -48 -117 -48 -164 0 -28 28 -33 39 -33 81 0 52 25 92 70 112 37 16 96 3 129 -30z"
       id="path4523" />
    <path
       d="M1866 467 c-102 -58 -98 -211 8 -261 97 -46 215 26 216 132 0 51 -35 109 -80 132 -51 26 -95 25 -144 -3z m158 -46 c26 -27 31 -39 31 -81 0 -42 -5 -54 -30 -80 -83 -82 -220 -16 -201 98 6 37 37 78 71 93 37 16 96 3 129 -30z"
       id="path4525" />
    <text
       xml:space="preserve"
       style="font-style:normal;font-variant:normal;font-weight:normal;font-stretch:normal;font-size:200px;line-height:1.25;font-family:TeamViewer12;-inkscape-font-specification:TeamViewer12;letter-spacing:0px;word-spacing:0px;fill:#000000;fill-opacity:1;stroke:none;stroke-width:7.5;"
       x="737.56976"
       y="-4150.8486"
       id="text4545"
       transform="scale(1,-1)"><tspan
         sodipodi:role="line"
         id="tspan4543"
         x="737.56976"
         y="-3968.3826"
         style="stroke-width:7.5;-inkscape-font-specification:TeamViewer12;font-family:TeamViewer12;font-weight:normal;font-style:normal;font-stretch:normal;font-variant:normal;" /></text>
    <text
       xml:space="preserve"
       style="font-style:normal;font-variant:normal;font-weight:normal;font-stretch:normal;font-size:200px;line-height:1.25;font-family:Arial;-inkscape-font-specification:Arial;letter-spacing:0px;word-spacing:0px;fill:#000000;fill-opacity:1;stroke:none;stroke-width:7.5;"
       x="576.05817"
       y="-4140.0815"
       id="text4549"
       transform="scale(1,-1)"><tspan
         sodipodi:role="line"
         id="tspan4547"
         x="576.05817"
         y="-3955.0815"
         style="stroke-width:7.5;-inkscape-font-specification:Arial;font-family:Arial;font-weight:normal;font-style:normal;font-stretch:normal;font-variant:normal;" /></text>
    <text
       xml:space="preserve"
       style="font-style:normal;font-variant:normal;font-weight:normal;font-stretch:normal;font-size:400px;line-height:1.25;font-family:Arial;-inkscape-font-specification:Arial;letter-spacing:0px;word-spacing:0px;fill:#000000;fill-opacity:1;stroke:none;stroke-width:7.5"
       x="904.46515"
       y="-4010.8723"
       id="text4553"
       transform="scale(1,-1)"><tspan
         sodipodi:role="line"
         id="tspan4551"
         x="904.46515"
         y="-4010.8723"
         style="font-size:400px;stroke-width:7.5">AREA #</tspan></text>
    <text
       xml:space="preserve"
       style="font-style:normal;font-variant:normal;font-weight:normal;font-stretch:normal;font-size:220px;line-height:1.25;font-family:Arial;-inkscape-font-specification:Arial;letter-spacing:0px;word-spacing:0px;fill:#000000;fill-opacity:1;stroke:none;stroke-width:7.5"
       x="3257.1511"
       y="-2794.1511"
       id="text4557"
       transform="scale(1,-1)"><tspan
         sodipodi:role="line"
         id="tspan4555"
         x="3257.1511"
         y="-2794.1511"
         style="stroke-width:7.5">ATTACK</tspan></text>
    <text
       xml:space="preserve"
       style="font-style:normal;font-variant:normal;font-weight:normal;font-stretch:normal;font-size:480px;line-height:1.25;font-family:Arial;-inkscape-font-specification:Arial;letter-spacing:0px;word-spacing:0px;fill:#000000;fill-opacity:1;stroke:none;stroke-width:7.5"
       x="1453.6046"
       y="-2864.1396"
       id="text4561"
       transform="scale(1,-1)"><tspan
         sodipodi:role="line"
         id="tspan4559"
         x="1453.6046"
         y="-2864.1396"
         style="font-size:480px;stroke-width:7.5">-</tspan></text>
    <text
       xml:space="preserve"
       style="font-style:normal;font-variant:normal;font-weight:normal;font-stretch:normal;font-size:220px;line-height:1.25;font-family:Arial;-inkscape-font-specification:Arial;letter-spacing:0px;word-spacing:0px;fill:#000000;fill-opacity:1;stroke:none;stroke-width:7.5"
       x="3231.3835"
       y="-1967.2559"
       id="text4565"
       transform="scale(1,-1)"><tspan
         sodipodi:role="line"
         id="tspan4563"
         x="3231.3835"
         y="-1967.2559"
         style="stroke-width:7.5">DEFEND</tspan></text>
    <text
       xml:space="preserve"
       style="font-style:normal;font-variant:normal;font-weight:normal;font-stretch:normal;font-size:220px;line-height:1.25;font-family:Arial;-inkscape-font-specification:Arial;letter-spacing:0px;word-spacing:0px;fill:#000000;fill-opacity:1;stroke:none;stroke-width:7.5"
       x="3391.7441"
       y="-1168.2675"
       id="text4569"
       transform="scale(1,-1)"><tspan
         sodipodi:role="line"
         id="tspan4567"
         x="3391.7441"
         y="-1168.2675"
         style="stroke-width:7.5">PASS</tspan></text>
  </g>
</svg>
